<?xml version="1.0" encoding="UTF-8" standalone="no"?>
<svg
   xmlns="http://www.w3.org/2000/svg"
   id="svg4403"
   version="1.1"
   height="408.4"
   width="1200">
  <title
     id="title846">Northrop Grumman logo</title>
  <g
     style="fill:#00269a;fill-opacity:1;fill-rule:nonzero;stroke:none"
     transform="matrix(10.544921,0,0,-10.544921,-12182.9,6882.7342)"
     id="g896">
    <g
       id="g897">
      <g
         transform="translate(1164.3223,643.6157)"
         id="g3458">
        <path
           d="M 0,0 H 2.372 L 6.623,-5.388 V 0 H 8.99 V -9.09 H 6.55 L 2.372,-3.667 V -9.09 H 0 Z"
           id="path3456" />
      </g>
      <g
         transform="translate(1181.3281,637.1714)"
         id="g3462">
        <path
           d="m 0,0 c 0.486,0.499 0.736,1.151 0.736,1.947 0,0.735 -0.25,1.352 -0.748,1.85 -0.498,0.499 -1.127,0.748 -1.875,0.748 -0.759,0 -1.377,-0.261 -1.875,-0.759 -0.487,-0.499 -0.736,-1.139 -0.736,-1.911 0,-0.771 0.238,-1.4 0.725,-1.899 0.474,-0.486 1.103,-0.735 1.874,-0.735 0.772,0 1.4,0.249 1.899,0.759 m -5.483,-1.59 c -0.949,0.926 -1.413,2.089 -1.413,3.501 0,1.423 0.488,2.598 1.473,3.524 0.961,0.891 2.136,1.341 3.548,1.341 1.412,0 2.611,-0.463 3.572,-1.388 0.961,-0.914 1.436,-2.054 1.436,-3.395 0,-1.447 -0.487,-2.646 -1.46,-3.595 -0.961,-0.914 -2.148,-1.377 -3.56,-1.377 -1.461,0 -2.658,0.463 -3.596,1.389"
           id="path3460" />
      </g>
      <g
         transform="translate(1188.8369,639.5215)"
         id="g3466">
        <path
           d="m 0,0 c 0.819,0 1.222,0.38 1.222,1.139 0,0.759 -0.391,1.14 -1.198,1.14 H -0.715 V 0 Z m -3.085,4.094 h 3.619 c 0.903,0 1.626,-0.25 2.207,-0.736 0.593,-0.522 0.903,-1.222 0.903,-2.112 0,-1.258 -0.523,-2.089 -1.567,-2.481 L 4.51,-4.996 H 1.673 l -1.91,3.204 h -0.478 v -3.204 h -2.37 z"
           id="path3464" />
      </g>
      <g
         transform="translate(1195.5684,641.2451)"
         id="g3470">
        <path
           d="M 0,0 H -1.924 V 2.371 H 4.294 V 0 H 2.369 V -6.72 H 0 Z"
           id="path3468" />
      </g>
      <g
         transform="translate(1201.3584,643.6157)"
         id="g3474">
        <path
           d="M 0,0 H 2.37 V -3.212 H 5.698 V 0 H 8.069 V -9.091 H 5.698 v 3.508 H 2.37 V -9.091 H 0 Z"
           id="path3472" />
      </g>
      <g
         transform="translate(1214.2822,639.5215)"
         id="g3478">
        <path
           d="m 0,0 c 0.818,0 1.222,0.38 1.222,1.139 0,0.759 -0.391,1.14 -1.199,1.14 H -0.715 V 0 Z m -3.085,4.094 h 3.619 c 0.902,0 1.626,-0.25 2.207,-0.736 0.593,-0.522 0.902,-1.222 0.902,-2.112 0,-1.258 -0.522,-2.089 -1.566,-2.481 L 4.51,-4.996 H 1.673 l -1.91,3.204 h -0.478 v -3.204 h -2.37 z"
           id="path3476" />
      </g>
      <g
         transform="translate(1226.0283,637.1714)"
         id="g3482">
        <path
           d="m 0,0 c 0.486,0.499 0.735,1.151 0.735,1.947 0,0.735 -0.249,1.352 -0.748,1.85 -0.498,0.499 -1.127,0.748 -1.875,0.748 -0.758,0 -1.377,-0.261 -1.875,-0.759 -0.485,-0.499 -0.735,-1.139 -0.735,-1.911 0,-0.771 0.237,-1.4 0.724,-1.899 0.474,-0.486 1.104,-0.735 1.875,-0.735 0.772,0 1.4,0.249 1.899,0.759 m -5.482,-1.59 c -0.951,0.926 -1.414,2.089 -1.414,3.501 0,1.423 0.488,2.598 1.473,3.524 0.961,0.891 2.136,1.341 3.548,1.341 1.413,0 2.61,-0.463 3.571,-1.388 0.961,-0.914 1.437,-2.054 1.437,-3.395 0,-1.447 -0.487,-2.646 -1.46,-3.595 -0.961,-0.914 -2.149,-1.377 -3.561,-1.377 -1.46,0 -2.657,0.463 -3.594,1.389"
           id="path3480" />
      </g>
      <g
         transform="translate(1233.7988,639.4385)"
         id="g3486">
        <path
           d="M 0,0 C 0.937,0 1.4,0.404 1.4,1.222 1.4,2.005 0.949,2.385 0.023,2.385 H -0.786 V 0 Z m -3.157,4.177 h 4.059 c 0.878,0 1.59,-0.284 2.1,-0.878 0.512,-0.546 0.76,-1.281 0.76,-2.172 0,-0.854 -0.248,-1.542 -0.76,-2.064 C 2.504,-1.471 1.816,-1.745 0.973,-1.745 h -1.759 v -3.168 h -2.371 z"
           id="path3484" />
      </g>
    </g>
    <g
       id="g898">
      <g
         transform="translate(1175.7617,624.1201)"
         id="g3442">
        <path
           d="m 0,0 c -0.878,0.926 -1.329,2.089 -1.329,3.477 0,1.365 0.451,2.516 1.329,3.454 0.913,0.96 2.041,1.435 3.395,1.435 1.827,0 3.191,-0.759 4.105,-2.278 L 5.602,5.043 C 5.555,5.162 5.458,5.293 5.316,5.447 4.807,6.016 4.153,6.301 3.37,6.301 2.587,6.301 2.005,5.993 1.614,5.388 1.282,4.878 1.115,4.213 1.115,3.382 1.115,2.54 1.317,1.887 1.709,1.4 2.137,0.866 2.766,0.605 3.584,0.605 c 0.475,0 0.914,0.154 1.306,0.451 0.426,0.321 0.665,0.7 0.712,1.163 H 3.514 V 4.118 H 8.07 V 3.619 C 8.07,2.077 7.69,0.866 6.918,-0.012 6.111,-0.926 4.948,-1.389 3.417,-1.389 2.029,-1.389 0.891,-0.926 0,0"
           id="path3440" />
      </g>
      <g
         transform="translate(1188.3262,628.0596)"
         id="g3502">
        <path
           d="m 0,0 c 0.818,0 1.222,0.38 1.222,1.139 0,0.76 -0.391,1.14 -1.199,1.14 H -0.715 V 0 Z m -3.085,4.094 h 3.619 c 0.902,0 1.626,-0.25 2.207,-0.736 0.594,-0.522 0.902,-1.222 0.902,-2.112 0,-1.258 -0.522,-2.089 -1.566,-2.481 L 4.51,-4.996 H 1.673 l -1.91,3.204 h -0.478 v -3.204 h -2.37 z"
           id="path3500" />
      </g>
      <g
         transform="translate(1194.8555,623.5264)"
         id="g3446">
        <path
           d="M 0,0 C -0.808,0.605 -1.223,1.436 -1.223,2.48 V 8.628 H 1.15 V 2.979 c 0,-1.092 0.546,-1.638 1.639,-1.638 0.485,0 0.904,0.131 1.19,0.392 0.295,0.272 0.45,0.652 0.45,1.127 V 8.628 H 6.8 V 2.741 C 6.8,1.59 6.407,0.7 5.612,0.059 4.889,-0.51 3.928,-0.795 2.74,-0.795 1.648,-0.795 0.735,-0.534 0,0"
           id="path3444" />
      </g>
      <g
         transform="translate(1208.7061,627.4556)"
         id="g3494">
        <path
           d="M 0,0 3.002,4.698 H 3.006 5.373 V -4.393 H 3.006 V 0.942 H 3.002 L 0.639,-2.766 h -1.257 l -2.375,3.708 h -0.004 v -5.335 h -2.376 v 9.091 h 2.376 z"
           id="path3492" />
      </g>
      <g
         transform="translate(1221.4023,627.4556)"
         id="g3498">
        <path
           d="M 0,0 3.001,4.698 H 3.005 5.373 V -4.393 H 3.005 V 0.942 H 3.001 L 0.639,-2.766 h -1.257 l -2.375,3.708 h -0.009 l -0.001,-5.335 h -2.37 v 9.091 h 2.375 z"
           id="path3496" />
      </g>
      <g
         transform="translate(1233.6416,626.5762)"
         id="g3450">
        <path
           id="path3448"
           d="M 0,0 -0.961,2.777 -1.934,0 Z m -2.286,5.578 h 2.714 l 3.37,-9.091 H 1.234 l -0.617,1.685 h -3.143 l -0.606,-1.685 h -2.529 z" />
      </g>
      <g
         transform="translate(1238.7461,632.1538)"
         id="g3454">
        <path
           d="M 0,0 H 2.374 L 6.555,-5.388 V 0 H 8.924 V -9.091 H 6.55 L 2.372,-3.667 V -9.091 H 0 Z"
           id="path3452" />
      </g>
    </g>
    <g
       transform="translate(1238.7461,643.6157)"
       id="g899">
      <path
         d="m 0,0 v -2.373 h 19.036 v -18.179 h 2.372 V 0 Z"
         id="path3488" />
    </g>
  </g>
</svg>